<svg width="107" height="125" viewBox="0 0 107 125" fill="none" xmlns="http://www.w3.org/2000/svg">
<g clip-path="url(#paint0_diamond_39_2_clip_path)" data-figma-skip-parse="true"><g transform="matrix(-0.0649643 -0.000123288 3.76673e-05 -0.0109286 64.9643 105.123)"><rect x="0" y="0" width="1046.82" height="1117.13" fill="url(#paint0_diamond_39_2)" opacity="1" shape-rendering="crispEdges"/><rect x="0" y="0" width="1046.82" height="1117.13" transform="scale(1 -1)" fill="url(#paint0_diamond_39_2)" opacity="1" shape-rendering="crispEdges"/><rect x="0" y="0" width="1046.82" height="1117.13" transform="scale(-1 1)" fill="url(#paint0_diamond_39_2)" opacity="1" shape-rendering="crispEdges"/><rect x="0" y="0" width="1046.82" height="1117.13" transform="scale(-1)" fill="url(#paint0_diamond_39_2)" opacity="1" shape-rendering="crispEdges"/></g></g><path d="M17.1725 107.328L16.9805 109.84C16.7032 110.299 16.3512 110.709 15.9245 111.072C15.5085 111.424 15.0125 111.707 14.4365 111.92C13.8712 112.123 13.2205 112.224 12.4845 112.224C11.3752 112.213 10.3885 111.968 9.5245 111.488C8.6605 111.008 7.98317 110.336 7.4925 109.472C7.0125 108.597 6.7725 107.568 6.7725 106.384C6.7725 105.221 7.0125 104.208 7.4925 103.344C7.9725 102.469 8.6445 101.792 9.5085 101.312C10.3832 100.821 11.4072 100.576 12.5805 100.576C13.3698 100.576 14.0792 100.683 14.7085 100.896C15.3485 101.099 15.9032 101.355 16.3725 101.664L16.6925 103.92H16.5485C16.3138 102.981 15.8338 102.272 15.1085 101.792C14.3832 101.301 13.5405 101.056 12.5805 101.056C11.6418 101.056 10.8258 101.28 10.1325 101.728C9.44983 102.165 8.9165 102.784 8.5325 103.584C8.15917 104.373 7.9725 105.301 7.9725 106.368C7.9725 107.435 8.15917 108.368 8.5325 109.168C8.9165 109.968 9.4445 110.592 10.1165 111.04C10.7992 111.488 11.5885 111.723 12.4845 111.744C13.2418 111.744 13.9405 111.605 14.5805 111.328C15.2312 111.04 15.7752 110.576 16.2125 109.936C16.6498 109.285 16.9272 108.416 17.0445 107.328H17.1725ZM23.7128 100.576L28.4488 111.904H27.0888L23.3928 102.096L23.7128 100.576ZM20.2728 110.832C20.1981 111.045 20.1874 111.227 20.2408 111.376C20.2941 111.525 20.3794 111.643 20.4968 111.728C20.6248 111.803 20.7528 111.84 20.8808 111.84H21.0248V112H17.8087V111.84C17.8087 111.84 17.8354 111.84 17.8887 111.84C17.9314 111.84 17.9527 111.84 17.9527 111.84C18.1981 111.84 18.4488 111.765 18.7048 111.616C18.9714 111.456 19.1901 111.195 19.3608 110.832H20.2728ZM23.7128 100.576L23.8568 101.696L19.8408 111.952H18.8808L22.9768 102.224C22.9768 102.224 23.0034 102.16 23.0568 102.032C23.1208 101.893 23.1901 101.728 23.2648 101.536C23.3501 101.344 23.4194 101.157 23.4728 100.976C23.5368 100.795 23.5688 100.661 23.5688 100.576H23.7128ZM25.9688 107.632V108.112H20.9608V107.632H25.9688ZM26.6888 110.832H28.0008C28.1608 111.195 28.3741 111.456 28.6408 111.616C28.9074 111.765 29.1634 111.84 29.4088 111.84C29.4088 111.84 29.4301 111.84 29.4728 111.84C29.5154 111.84 29.5368 111.84 29.5368 111.84V112H25.9368V111.84H26.0808C26.2834 111.84 26.4648 111.755 26.6248 111.584C26.7848 111.403 26.8061 111.152 26.6888 110.832ZM32.3834 100.8H34.6394C35.1194 100.8 35.5514 100.869 35.9354 101.008C36.33 101.147 36.6607 101.349 36.9274 101.616C37.194 101.872 37.3967 102.187 37.5354 102.56C37.6847 102.923 37.7594 103.339 37.7594 103.808C37.7594 104.32 37.6367 104.811 37.3914 105.28C37.1567 105.749 36.8314 106.133 36.4154 106.432C36.01 106.72 35.5514 106.864 35.0394 106.864C35.2207 106.939 35.418 107.093 35.6314 107.328C35.8447 107.552 36.0314 107.771 36.1914 107.984C36.1914 107.984 36.2607 108.091 36.3994 108.304C36.5487 108.507 36.73 108.757 36.9434 109.056C37.1674 109.355 37.3914 109.648 37.6154 109.936C37.8394 110.224 38.0314 110.453 38.1914 110.624C38.4047 110.859 38.618 111.067 38.8314 111.248C39.0447 111.429 39.274 111.573 39.5194 111.68C39.7754 111.787 40.058 111.84 40.3674 111.84V112H39.4874C38.9967 112 38.57 111.925 38.2074 111.776C37.8554 111.627 37.5567 111.445 37.3114 111.232C37.066 111.008 36.858 110.795 36.6874 110.592C36.6554 110.549 36.5647 110.427 36.4154 110.224C36.2767 110.021 36.106 109.781 35.9034 109.504C35.7114 109.216 35.5194 108.933 35.3274 108.656C35.1354 108.379 34.97 108.144 34.8314 107.952C34.6927 107.749 34.6127 107.632 34.5914 107.6C34.3887 107.333 34.1647 107.088 33.9194 106.864C33.674 106.64 33.4074 106.528 33.1194 106.528V106.368C33.1194 106.368 33.1994 106.373 33.3594 106.384C33.53 106.384 33.7327 106.379 33.9674 106.368C34.2447 106.357 34.5487 106.315 34.8794 106.24C35.21 106.165 35.5194 106.011 35.8074 105.776C36.0954 105.541 36.314 105.184 36.4634 104.704C36.4954 104.587 36.522 104.443 36.5434 104.272C36.5647 104.091 36.57 103.915 36.5594 103.744C36.5487 103.019 36.362 102.443 35.9994 102.016C35.6474 101.579 35.1727 101.344 34.5754 101.312C34.2767 101.291 33.9674 101.285 33.6474 101.296C33.338 101.296 33.0767 101.296 32.8634 101.296C32.65 101.296 32.5434 101.296 32.5434 101.296C32.5434 101.285 32.5274 101.243 32.4954 101.168C32.474 101.083 32.4474 101.003 32.4154 100.928C32.394 100.843 32.3834 100.8 32.3834 100.8ZM32.5914 100.8V112H31.5514V100.8H32.5914ZM31.5994 110.832V112H30.3194V111.84C30.3194 111.84 30.3514 111.84 30.4154 111.84C30.49 111.84 30.5274 111.84 30.5274 111.84C30.8047 111.84 31.0394 111.744 31.2314 111.552C31.434 111.349 31.5407 111.109 31.5514 110.832H31.5994ZM31.5994 101.968H31.5514C31.5407 101.691 31.434 101.456 31.2314 101.264C31.0394 101.061 30.8047 100.96 30.5274 100.96C30.5274 100.96 30.49 100.96 30.4154 100.96C30.3514 100.96 30.3194 100.96 30.3194 100.96V100.8H31.5994V101.968ZM32.5434 110.832H32.5914C32.5914 111.109 32.6927 111.349 32.8954 111.552C33.098 111.744 33.338 111.84 33.6154 111.84C33.6154 111.84 33.6474 111.84 33.7114 111.84C33.7754 111.84 33.8074 111.84 33.8074 111.84V112H32.5434V110.832ZM42.7271 100.8H44.8391C45.5218 100.8 46.1085 100.923 46.5991 101.168C47.0898 101.413 47.4685 101.771 47.7351 102.24C48.0018 102.699 48.1351 103.248 48.1351 103.888C48.1351 104.379 48.0391 104.821 47.8471 105.216C47.6551 105.6 47.3991 105.925 47.0791 106.192C46.7591 106.459 46.3965 106.661 45.9911 106.8C45.5858 106.928 45.1645 106.976 44.7271 106.944C44.3005 106.912 43.8845 106.789 43.4791 106.576V106.416C43.4791 106.416 43.5698 106.432 43.7511 106.464C43.9325 106.485 44.1618 106.491 44.4391 106.48C44.7271 106.459 45.0258 106.4 45.3351 106.304C45.6551 106.197 45.9485 106.016 46.2151 105.76C46.4925 105.504 46.7005 105.147 46.8391 104.688C46.8711 104.571 46.8978 104.427 46.9191 104.256C46.9405 104.075 46.9458 103.899 46.9351 103.728C46.9245 102.992 46.7325 102.4 46.3591 101.952C45.9858 101.504 45.4578 101.28 44.7751 101.28H42.8871C42.8871 101.28 42.8711 101.243 42.8391 101.168C42.8178 101.083 42.7911 101.003 42.7591 100.928C42.7378 100.843 42.7271 100.8 42.7271 100.8ZM42.9351 100.8V112H41.8951V100.8H42.9351ZM41.9431 110.832V112H40.6631V111.84C40.6631 111.84 40.6951 111.84 40.7591 111.84C40.8338 111.84 40.8711 111.84 40.8711 111.84C41.1485 111.84 41.3831 111.744 41.5751 111.552C41.7778 111.349 41.8845 111.109 41.8951 110.832H41.9431ZM41.9431 101.968H41.8951C41.8951 101.691 41.7938 101.456 41.5911 101.264C41.3885 101.061 41.1485 100.96 40.8711 100.96C40.8711 100.96 40.8391 100.96 40.7751 100.96C40.7111 100.96 40.6791 100.96 40.6791 100.96L40.6631 100.8H41.9431V101.968ZM42.8871 110.832H42.9351C42.9458 111.109 43.0471 111.349 43.2391 111.552C43.4418 111.744 43.6818 111.84 43.9591 111.84C43.9591 111.84 43.9911 111.84 44.0551 111.84C44.1298 111.84 44.1671 111.84 44.1671 111.84V112H42.8871V110.832ZM52.0914 100.8V112H51.0514V100.8H52.0914ZM56.4114 111.504V112H52.0434V111.504H56.4114ZM55.7234 106.24V106.72H52.0434V106.24H55.7234ZM56.4114 100.8V101.296H52.0434V100.8H56.4114ZM57.3874 109.408L56.4594 112H53.8034L54.3794 111.504C54.9447 111.504 55.4034 111.419 55.7554 111.248C56.118 111.067 56.4114 110.816 56.6354 110.496C56.8594 110.176 57.0567 109.813 57.2274 109.408H57.3874ZM55.7234 106.688V107.744H55.5634V107.504C55.5634 107.291 55.4887 107.109 55.3394 106.96C55.19 106.8 55.0087 106.72 54.7954 106.72V106.688H55.7234ZM55.7234 105.216V106.272H54.7954V106.24C55.0087 106.229 55.19 106.149 55.3394 106C55.4887 105.84 55.5634 105.653 55.5634 105.44V105.216H55.7234ZM56.4114 101.248V102.528H56.2514V102.24C56.2514 101.984 56.1607 101.765 55.9794 101.584C55.798 101.392 55.574 101.291 55.3074 101.28V101.248H56.4114ZM56.4114 100.512V100.976L54.4594 100.8C54.694 100.8 54.9394 100.784 55.1954 100.752C55.462 100.72 55.7074 100.683 55.9314 100.64C56.1554 100.597 56.3154 100.555 56.4114 100.512ZM51.0994 110.832V112H49.8194V111.84C49.8194 111.84 49.8514 111.84 49.9154 111.84C49.99 111.84 50.0274 111.84 50.0274 111.84C50.3047 111.84 50.5394 111.744 50.7314 111.552C50.934 111.349 51.0407 111.109 51.0514 110.832H51.0994ZM51.0994 101.968H51.0514C51.0514 101.691 50.95 101.456 50.7474 101.264C50.5447 101.061 50.3047 100.96 50.0274 100.96C50.0274 100.96 49.9954 100.96 49.9314 100.96C49.8674 100.96 49.8354 100.96 49.8354 100.96L49.8194 100.8H51.0994V101.968ZM59.9535 100.56L69.2495 110.48L69.3935 112.224L60.0975 102.32L59.9535 100.56ZM59.9855 110.864V112H58.6575V111.84C58.6575 111.84 58.7055 111.84 58.8015 111.84C58.8975 111.84 58.9508 111.84 58.9615 111.84C59.2282 111.84 59.4575 111.744 59.6495 111.552C59.8415 111.36 59.9375 111.131 59.9375 110.864H59.9855ZM60.6735 110.864C60.6735 111.131 60.7695 111.36 60.9615 111.552C61.1535 111.744 61.3828 111.84 61.6495 111.84C61.6602 111.84 61.7135 111.84 61.8095 111.84C61.9055 111.84 61.9535 111.84 61.9535 111.84V112H60.6255V110.864H60.6735ZM59.9535 100.56L60.6575 101.456L60.6735 112H59.9375V102.56C59.9375 102.016 59.9108 101.547 59.8575 101.152C59.8148 100.757 59.7935 100.56 59.7935 100.56H59.9535ZM69.3935 100.8V110.176C69.3935 110.517 69.4042 110.848 69.4255 111.168C69.4468 111.477 69.4682 111.733 69.4895 111.936C69.5215 112.128 69.5375 112.224 69.5375 112.224H69.3935L68.6735 111.376V100.8H69.3935ZM70.6735 100.8V100.96C70.6735 100.96 70.6255 100.96 70.5295 100.96C70.4335 100.96 70.3855 100.96 70.3855 100.96C70.1188 100.96 69.8895 101.056 69.6975 101.248C69.5055 101.429 69.4042 101.659 69.3935 101.936H69.3455V100.8H70.6735ZM67.3775 100.8H68.7055V101.936H68.6735C68.6628 101.659 68.5615 101.429 68.3695 101.248C68.1882 101.056 67.9588 100.96 67.6815 100.96C67.6815 100.96 67.6335 100.96 67.5375 100.96C67.4415 100.96 67.3882 100.96 67.3775 100.96V100.8ZM76.8626 100.848V112H75.8226V100.848H76.8626ZM80.9746 100.784V101.264H71.7106V100.784H80.9746ZM80.9746 101.216V102.512L80.8146 102.496V102.224C80.8146 101.957 80.7186 101.733 80.5266 101.552C80.3453 101.371 80.1266 101.275 79.8706 101.264V101.216H80.9746ZM80.9746 100.496V100.96L79.0226 100.784C79.2573 100.784 79.5026 100.768 79.7586 100.736C80.0253 100.704 80.2706 100.667 80.4946 100.624C80.7186 100.581 80.8786 100.539 80.9746 100.496ZM75.8706 110.832V112H74.5906V111.84C74.5906 111.84 74.6226 111.84 74.6866 111.84C74.7613 111.84 74.7986 111.84 74.7986 111.84C75.076 111.84 75.3106 111.744 75.5026 111.552C75.7053 111.349 75.812 111.109 75.8226 110.832H75.8706ZM76.8146 110.832H76.8626C76.8733 111.109 76.9746 111.349 77.1666 111.552C77.3693 111.744 77.6093 111.84 77.8866 111.84C77.8866 111.84 77.9186 111.84 77.9826 111.84C78.0573 111.84 78.0946 111.84 78.0946 111.84V112H76.8146V110.832ZM72.8146 101.216V101.264C72.548 101.275 72.324 101.371 72.1426 101.552C71.9613 101.733 71.8706 101.957 71.8706 102.224V102.496L71.7106 102.512V101.216H72.8146ZM71.7106 100.496C71.8173 100.539 71.9773 100.581 72.1906 100.624C72.4146 100.667 72.66 100.704 72.9266 100.736C73.1933 100.768 73.4386 100.784 73.6626 100.784L71.7106 100.96V100.496ZM84.5133 100.8V112H83.4733V100.8H84.5133ZM88.8333 111.504V112H84.4653V111.504H88.8333ZM88.1453 106.24V106.72H84.4653V106.24H88.1453ZM88.8333 100.8V101.296H84.4653V100.8H88.8333ZM89.8093 109.408L88.8813 112H86.2253L86.8013 111.504C87.3666 111.504 87.8253 111.419 88.1773 111.248C88.5399 111.067 88.8333 110.816 89.0573 110.496C89.2813 110.176 89.4786 109.813 89.6493 109.408H89.8093ZM88.1453 106.688V107.744H87.9853V107.504C87.9853 107.291 87.9106 107.109 87.7613 106.96C87.6119 106.8 87.4306 106.72 87.2173 106.72V106.688H88.1453ZM88.1453 105.216V106.272H87.2173V106.24C87.4306 106.229 87.6119 106.149 87.7613 106C87.9106 105.84 87.9853 105.653 87.9853 105.44V105.216H88.1453ZM88.8333 101.248V102.528H88.6733V102.24C88.6733 101.984 88.5826 101.765 88.4013 101.584C88.2199 101.392 87.9959 101.291 87.7293 101.28V101.248H88.8333ZM88.8333 100.512V100.976L86.8813 100.8C87.1159 100.8 87.3613 100.784 87.6173 100.752C87.8839 100.72 88.1293 100.683 88.3533 100.64C88.5773 100.597 88.7373 100.555 88.8333 100.512ZM83.5213 110.832V112H82.2413V111.84C82.2413 111.84 82.2733 111.84 82.3372 111.84C82.4119 111.84 82.4493 111.84 82.4493 111.84C82.7266 111.84 82.9613 111.744 83.1533 111.552C83.3559 111.349 83.4626 111.109 83.4733 110.832H83.5213ZM83.5213 101.968H83.4733C83.4733 101.691 83.3719 101.456 83.1693 101.264C82.9666 101.061 82.7266 100.96 82.4493 100.96C82.4493 100.96 82.4173 100.96 82.3533 100.96C82.2893 100.96 82.2573 100.96 82.2573 100.96L82.2413 100.8H83.5213V101.968ZM93.3834 100.8H95.6394C96.1194 100.8 96.5514 100.869 96.9354 101.008C97.33 101.147 97.6607 101.349 97.9274 101.616C98.194 101.872 98.3967 102.187 98.5354 102.56C98.6847 102.923 98.7594 103.339 98.7594 103.808C98.7594 104.32 98.6367 104.811 98.3914 105.28C98.1567 105.749 97.8314 106.133 97.4154 106.432C97.01 106.72 96.5514 106.864 96.0394 106.864C96.2207 106.939 96.418 107.093 96.6314 107.328C96.8447 107.552 97.0314 107.771 97.1914 107.984C97.1914 107.984 97.2607 108.091 97.3994 108.304C97.5487 108.507 97.73 108.757 97.9434 109.056C98.1674 109.355 98.3914 109.648 98.6154 109.936C98.8394 110.224 99.0314 110.453 99.1914 110.624C99.4047 110.859 99.618 111.067 99.8314 111.248C100.045 111.429 100.274 111.573 100.519 111.68C100.775 111.787 101.058 111.84 101.367 111.84V112H100.487C99.9967 112 99.57 111.925 99.2074 111.776C98.8554 111.627 98.5567 111.445 98.3114 111.232C98.066 111.008 97.858 110.795 97.6874 110.592C97.6554 110.549 97.5647 110.427 97.4154 110.224C97.2767 110.021 97.106 109.781 96.9034 109.504C96.7114 109.216 96.5194 108.933 96.3274 108.656C96.1354 108.379 95.97 108.144 95.8314 107.952C95.6927 107.749 95.6127 107.632 95.5914 107.6C95.3887 107.333 95.1647 107.088 94.9194 106.864C94.674 106.64 94.4074 106.528 94.1194 106.528V106.368C94.1194 106.368 94.1994 106.373 94.3594 106.384C94.53 106.384 94.7327 106.379 94.9674 106.368C95.2447 106.357 95.5487 106.315 95.8794 106.24C96.21 106.165 96.5194 106.011 96.8074 105.776C97.0954 105.541 97.314 105.184 97.4634 104.704C97.4954 104.587 97.522 104.443 97.5434 104.272C97.5647 104.091 97.57 103.915 97.5594 103.744C97.5487 103.019 97.362 102.443 96.9994 102.016C96.6474 101.579 96.1727 101.344 95.5754 101.312C95.2767 101.291 94.9674 101.285 94.6474 101.296C94.338 101.296 94.0767 101.296 93.8634 101.296C93.65 101.296 93.5434 101.296 93.5434 101.296C93.5434 101.285 93.5274 101.243 93.4954 101.168C93.474 101.083 93.4474 101.003 93.4154 100.928C93.394 100.843 93.3834 100.8 93.3834 100.8ZM93.5914 100.8V112H92.5514V100.8H93.5914ZM92.5994 110.832V112H91.3194V111.84C91.3194 111.84 91.3514 111.84 91.4154 111.84C91.49 111.84 91.5274 111.84 91.5274 111.84C91.8047 111.84 92.0394 111.744 92.2314 111.552C92.434 111.349 92.5407 111.109 92.5514 110.832H92.5994ZM92.5994 101.968H92.5514C92.5407 101.691 92.434 101.456 92.2314 101.264C92.0394 101.061 91.8047 100.96 91.5274 100.96C91.5274 100.96 91.49 100.96 91.4154 100.96C91.3514 100.96 91.3194 100.96 91.3194 100.96V100.8H92.5994V101.968ZM93.5434 110.832H93.5914C93.5914 111.109 93.6927 111.349 93.8954 111.552C94.098 111.744 94.338 111.84 94.6154 111.84C94.6154 111.84 94.6474 111.84 94.7114 111.84C94.7754 111.84 94.8074 111.84 94.8074 111.84V112H93.5434V110.832Z" data-figma-gradient-fill="{&#34;type&#34;:&#34;GRADIENT_DIAMOND&#34;,&#34;stops&#34;:[{&#34;color&#34;:{&#34;r&#34;:0.98039215803146362,&#34;g&#34;:0.74901962280273438,&#34;b&#34;:0.18823529779911041,&#34;a&#34;:1.0},&#34;position&#34;:0.0},{&#34;color&#34;:{&#34;r&#34;:0.87450981140136719,&#34;g&#34;:0.73725491762161255,&#34;b&#34;:0.43529412150382996,&#34;a&#34;:1.0},&#34;position&#34;:1.0}],&#34;stopsVar&#34;:[{&#34;color&#34;:{&#34;r&#34;:0.98039215803146362,&#34;g&#34;:0.74901962280273438,&#34;b&#34;:0.18823529779911041,&#34;a&#34;:1.0},&#34;position&#34;:0.0},{&#34;color&#34;:{&#34;r&#34;:0.87450981140136719,&#34;g&#34;:0.73725491762161255,&#34;b&#34;:0.43529412150382996,&#34;a&#34;:1.0},&#34;position&#34;:1.0}],&#34;transform&#34;:{&#34;m00&#34;:-129.92857360839844,&#34;m01&#34;:0.075334675610065460,&#34;m02&#34;:129.89091491699219,&#34;m10&#34;:-0.24657537043094635,&#34;m11&#34;:-21.857143402099609,&#34;m12&#34;:116.17514801025391},&#34;opacity&#34;:1.0,&#34;blendMode&#34;:&#34;NORMAL&#34;,&#34;visible&#34;:true}"/>
<g clip-path="url(#paint1_diamond_39_2_clip_path)" data-figma-skip-parse="true"><g transform="matrix(-0.0582857 -6.84932e-05 3.3795e-05 -0.00607143 64.2857 117.068)"><rect x="0" y="0" width="1052.23" height="1336.8" fill="url(#paint1_diamond_39_2)" opacity="1" shape-rendering="crispEdges"/><rect x="0" y="0" width="1052.23" height="1336.8" transform="scale(1 -1)" fill="url(#paint1_diamond_39_2)" opacity="1" shape-rendering="crispEdges"/><rect x="0" y="0" width="1052.23" height="1336.8" transform="scale(-1 1)" fill="url(#paint1_diamond_39_2)" opacity="1" shape-rendering="crispEdges"/><rect x="0" y="0" width="1052.23" height="1336.8" transform="scale(-1)" fill="url(#paint1_diamond_39_2)" opacity="1" shape-rendering="crispEdges"/></g></g><path d="M17.9759 120V119.86L18.7319 119.608L18.6129 119.776V115.324L18.7319 115.492L17.9759 115.24V115.1H20.4959C20.9159 115.1 21.2869 115.196 21.6089 115.387C21.9356 115.574 22.1899 115.833 22.3719 116.164C22.5586 116.495 22.6519 116.876 22.6519 117.305C22.6519 117.697 22.5936 118.059 22.4769 118.39C22.3603 118.717 22.1969 119.001 21.9869 119.244C21.7769 119.482 21.5273 119.669 21.2379 119.804C20.9486 119.935 20.6313 120 20.2859 120H17.9759ZM19.2779 119.776L19.1519 119.65H20.4959C20.7666 119.65 21.0046 119.564 21.2099 119.391C21.4199 119.214 21.5833 118.971 21.6999 118.663C21.8213 118.35 21.8819 117.993 21.8819 117.592C21.8819 117.172 21.8143 116.801 21.6789 116.479C21.5436 116.157 21.3546 115.905 21.1119 115.723C20.8739 115.541 20.5986 115.45 20.2859 115.45H19.1519L19.2779 115.324V119.776ZM23.0208 120V119.86L23.7768 119.608L23.6578 119.776V115.324L23.7768 115.492L23.0208 115.24V115.1H26.7588V116.36H26.6118L26.3248 115.331L26.4858 115.45H24.1968L24.3228 115.324V117.459L24.1968 117.333H25.6808L25.5198 117.452L25.7648 116.675H25.9048V118.285H25.7718L25.5128 117.494L25.6808 117.613H24.1968L24.3228 117.487V119.776L24.1968 119.65H26.4508L26.2688 119.762L26.8918 118.572L27.0248 118.621L26.7798 120H23.0208ZM28.9351 120.112C28.7717 120.112 28.5967 120.093 28.4101 120.056C28.2281 120.023 28.0507 119.974 27.8781 119.909C27.7101 119.844 27.5607 119.771 27.4301 119.692L27.5211 118.621H27.7241C27.7801 118.864 27.8687 119.081 27.9901 119.272C28.1114 119.459 28.2537 119.606 28.4171 119.713C28.5804 119.82 28.7531 119.874 28.9351 119.874C29.2384 119.874 29.4834 119.795 29.6701 119.636C29.8614 119.477 29.9571 119.277 29.9571 119.034C29.9571 118.913 29.9034 118.791 29.7961 118.67C29.6887 118.544 29.5487 118.418 29.3761 118.292C29.2034 118.161 29.0191 118.028 28.8231 117.893C28.5944 117.73 28.3704 117.564 28.1511 117.396C27.9317 117.228 27.7497 117.053 27.6051 116.871C27.4651 116.689 27.3951 116.498 27.3951 116.297C27.3951 116.04 27.4604 115.814 27.5911 115.618C27.7217 115.422 27.9037 115.268 28.1371 115.156C28.3704 115.044 28.6364 114.988 28.9351 114.988C29.1171 114.988 29.2921 115.004 29.4601 115.037C29.6327 115.07 29.7867 115.114 29.9221 115.17C30.0621 115.226 30.1694 115.291 30.2441 115.366V116.374H30.0481C29.9921 116.15 29.9057 115.952 29.7891 115.779C29.6724 115.606 29.5394 115.471 29.3901 115.373C29.2454 115.275 29.0937 115.226 28.9351 115.226C28.6737 115.226 28.4591 115.298 28.2911 115.443C28.1231 115.583 28.0391 115.763 28.0391 115.982C28.0391 116.127 28.0927 116.267 28.2001 116.402C28.3121 116.537 28.4544 116.67 28.6271 116.801C28.8044 116.927 28.9887 117.058 29.1801 117.193C29.3947 117.338 29.6024 117.489 29.8031 117.648C30.0084 117.802 30.1764 117.968 30.3071 118.145C30.4377 118.318 30.5031 118.509 30.5031 118.719C30.5031 118.99 30.4354 119.23 30.3001 119.44C30.1694 119.65 29.9851 119.816 29.7471 119.937C29.5137 120.054 29.2431 120.112 28.9351 120.112ZM30.8753 120V119.86L31.5263 119.65V115.45L30.8753 115.24V115.1H32.8353V115.24L32.1843 115.45V119.65L32.8353 119.86V120H30.8753ZM35.7606 120.105C35.3873 120.105 35.0443 120.044 34.7316 119.923C34.419 119.797 34.1483 119.622 33.9196 119.398C33.691 119.169 33.5136 118.901 33.3876 118.593C33.2663 118.28 33.2056 117.94 33.2056 117.571C33.2056 117.198 33.2663 116.855 33.3876 116.542C33.5136 116.229 33.691 115.959 33.9196 115.73C34.1483 115.497 34.419 115.317 34.7316 115.191C35.0443 115.065 35.3873 115 35.7606 114.995C35.924 114.995 36.1013 115.016 36.2926 115.058C36.4886 115.095 36.6846 115.149 36.8806 115.219C37.0766 115.289 37.2563 115.371 37.4196 115.464V116.5H37.1536C37.1536 116.257 37.0883 116.045 36.9576 115.863C36.827 115.676 36.645 115.532 36.4116 115.429C36.183 115.322 35.9193 115.268 35.6206 115.268C35.2986 115.268 35.0116 115.347 34.7596 115.506C34.5123 115.66 34.3186 115.875 34.1786 116.15C34.0386 116.421 33.9686 116.736 33.9686 117.095C33.9686 117.627 34.0503 118.101 34.2136 118.516C34.377 118.927 34.6033 119.249 34.8926 119.482C35.1866 119.715 35.5226 119.832 35.9006 119.832C36.1106 119.832 36.3136 119.785 36.5096 119.692C36.7056 119.599 36.876 119.473 37.0206 119.314L36.9646 119.503V118.124L37.0906 118.278L36.0476 118.04V117.9H38.0776V118.033L37.5176 118.306L37.6296 118.124V119.622C37.4663 119.715 37.2773 119.799 37.0626 119.874C36.848 119.944 36.6263 120 36.3976 120.042C36.1736 120.084 35.9613 120.105 35.7606 120.105ZM43.1466 120.175L39.3176 115.653L39.4016 115.625V119.776L39.2826 119.608L40.0596 119.867V120H38.4496V119.86L39.2056 119.608L39.0866 119.776V115.324L39.2056 115.492L38.4496 115.24V115.1H39.7656L42.9016 118.831L42.8316 118.859V115.324L42.9506 115.492L42.1946 115.24V115.1H43.8046V115.233L43.0276 115.492L43.1466 115.324V119.993V120.175ZM50.2448 121.512V115.331L50.7348 114.981V121.162L50.2448 121.512ZM57.1732 120V119.86L57.8242 119.65V115.45L57.1732 115.24V115.1H59.1332V115.24L58.4822 115.45V119.65L59.1332 119.86V120H57.1732ZM64.0782 120.175L60.2492 115.653L60.3332 115.625V119.776L60.2142 119.608L60.9912 119.867V120H59.3812V119.86L60.1372 119.608L60.0182 119.776V115.324L60.1372 115.492L59.3812 115.24V115.1H60.6972L63.8332 118.831L63.7632 118.859V115.324L63.8822 115.492L63.1262 115.24V115.1H64.7362V115.233L63.9592 115.492L64.0782 115.324V119.993V120.175ZM66.0609 120V119.86L66.8169 119.608L66.6979 119.776V115.324L66.8239 115.45H65.4239L65.6059 115.338L64.9969 116.5H64.8499L65.0879 115.1H68.9589L69.1969 116.5H69.0499L68.4409 115.338L68.6229 115.45H67.2369L67.3629 115.268V119.776L67.2439 119.608L67.9509 119.867V120H66.0609ZM69.307 120V119.86L70.063 119.608L69.944 119.776V115.324L70.063 115.492L69.307 115.24V115.1H73.045V116.36H72.898L72.611 115.331L72.772 115.45H70.483L70.609 115.324V117.459L70.483 117.333H71.967L71.806 117.452L72.051 116.675H72.191V118.285H72.058L71.799 117.494L71.967 117.613H70.483L70.609 117.487V119.776L70.483 119.65H72.737L72.555 119.762L73.178 118.572L73.311 118.621L73.066 120H69.307ZM73.4222 120V119.86L74.1782 119.608L74.0592 119.776V115.324L74.1782 115.492L73.4222 115.24V115.1H75.5222C75.8349 115.1 76.1102 115.151 76.3482 115.254C76.5909 115.357 76.7799 115.499 76.9152 115.681C77.0505 115.863 77.1182 116.073 77.1182 116.311C77.1182 116.544 77.0715 116.761 76.9782 116.962C76.8895 117.158 76.7635 117.326 76.6002 117.466C76.4369 117.606 76.2432 117.713 76.0192 117.788L76.0332 117.655L77.2092 119.363C77.2745 119.461 77.3422 119.54 77.4122 119.601C77.4822 119.662 77.5732 119.713 77.6852 119.755L77.9932 119.867V120H76.7892L75.3822 117.788L75.5712 117.9H74.5982L74.7242 117.774V119.776L74.6052 119.615L75.4522 119.86V120H73.4222ZM74.7242 117.746L74.5982 117.62H75.5222C75.7649 117.62 75.9632 117.52 76.1172 117.319C76.2712 117.114 76.3482 116.852 76.3482 116.535C76.3482 116.218 76.2502 115.959 76.0542 115.758C75.8629 115.553 75.6155 115.45 75.3122 115.45H74.5982L74.7242 115.324V117.746ZM78.0501 120V119.86L78.7011 119.65V115.45L78.0501 115.24V115.1H80.0101V115.24L79.3591 115.45V119.65L80.0101 119.86V120H78.0501ZM82.7534 120.112C82.2914 120.112 81.8808 120.005 81.5214 119.79C81.1668 119.571 80.8868 119.27 80.6814 118.887C80.4808 118.504 80.3804 118.066 80.3804 117.571C80.3804 117.193 80.4388 116.848 80.5554 116.535C80.6721 116.218 80.8354 115.945 81.0454 115.716C81.2554 115.483 81.5051 115.303 81.7944 115.177C82.0838 115.051 82.4034 114.988 82.7534 114.988C83.1034 114.988 83.4231 115.051 83.7124 115.177C84.0064 115.298 84.2584 115.471 84.4684 115.695C84.6831 115.919 84.8488 116.185 84.9654 116.493C85.0821 116.796 85.1404 117.132 85.1404 117.501C85.1404 117.884 85.0821 118.234 84.9654 118.551C84.8488 118.868 84.6831 119.144 84.4684 119.377C84.2584 119.61 84.0064 119.792 83.7124 119.923C83.4231 120.049 83.1034 120.112 82.7534 120.112ZM82.9144 119.825C83.3858 119.825 83.7474 119.669 83.9994 119.356C84.2514 119.039 84.3774 118.586 84.3774 117.998C84.3774 117.121 84.2234 116.449 83.9154 115.982C83.6074 115.511 83.1664 115.275 82.5924 115.275C82.1258 115.275 81.7664 115.434 81.5144 115.751C81.2671 116.064 81.1434 116.512 81.1434 117.095C81.1434 117.972 81.2951 118.647 81.5984 119.118C81.9064 119.589 82.3451 119.825 82.9144 119.825ZM85.5081 120V119.86L86.2641 119.608L86.1451 119.776V115.324L86.2641 115.492L85.5081 115.24V115.1H87.6081C87.9208 115.1 88.1961 115.151 88.4341 115.254C88.6768 115.357 88.8658 115.499 89.0011 115.681C89.1365 115.863 89.2041 116.073 89.2041 116.311C89.2041 116.544 89.1575 116.761 89.0641 116.962C88.9755 117.158 88.8495 117.326 88.6861 117.466C88.5228 117.606 88.3291 117.713 88.1051 117.788L88.1191 117.655L89.2951 119.363C89.3605 119.461 89.4281 119.54 89.4981 119.601C89.5681 119.662 89.6591 119.713 89.7711 119.755L90.0791 119.867V120H88.8751L87.4681 117.788L87.6571 117.9H86.6841L86.8101 117.774V119.776L86.6911 119.615L87.5381 119.86V120H85.5081ZM86.8101 117.746L86.6841 117.62H87.6081C87.8508 117.62 88.0491 117.52 88.2031 117.319C88.3571 117.114 88.4341 116.852 88.4341 116.535C88.4341 116.218 88.3361 115.959 88.1401 115.758C87.9488 115.553 87.7015 115.45 87.3981 115.45H86.6841L86.8101 115.324V117.746Z" data-figma-gradient-fill="{&#34;type&#34;:&#34;GRADIENT_DIAMOND&#34;,&#34;stops&#34;:[{&#34;color&#34;:{&#34;r&#34;:0.98039215803146362,&#34;g&#34;:0.74901962280273438,&#34;b&#34;:0.18823529779911041,&#34;a&#34;:1.0},&#34;position&#34;:0.0},{&#34;color&#34;:{&#34;r&#34;:0.87450981140136719,&#34;g&#34;:0.73725491762161255,&#34;b&#34;:0.43529412150382996,&#34;a&#34;:1.0},&#34;position&#34;:1.0}],&#34;stopsVar&#34;:[{&#34;color&#34;:{&#34;r&#34;:0.98039215803146362,&#34;g&#34;:0.74901962280273438,&#34;b&#34;:0.18823529779911041,&#34;a&#34;:1.0},&#34;position&#34;:0.0},{&#34;color&#34;:{&#34;r&#34;:0.87450981140136719,&#34;g&#34;:0.73725491762161255,&#34;b&#34;:0.43529412150382996,&#34;a&#34;:1.0},&#34;position&#34;:1.0}],&#34;transform&#34;:{&#34;m00&#34;:-116.57143402099609,&#34;m01&#34;:0.067589990794658661,&#34;m02&#34;:122.53764343261719,&#34;m10&#34;:-0.13698631525039673,&#34;m11&#34;:-12.142857551574707,&#34;m12&#34;:123.20841217041016},&#34;opacity&#34;:1.0,&#34;blendMode&#34;:&#34;NORMAL&#34;,&#34;visible&#34;:true}"/>
<path d="M5.89251 41.596L5.89251 95.7606" stroke="#D3AF37" stroke-width="3"/>
<path d="M98.9409 3.29551H100.441V0.295511H98.9409V1.79551V3.29551ZM98.9409 1.79551V0.295511L70.5533 0.295511V1.79551V3.29551L98.9409 3.29551V1.79551Z" fill="#D3AF37"/>
<path d="M50.9973 3.29551H52.4973V0.295511H50.9973V1.79551V3.29551ZM50.9973 1.79551V0.295511L6.83876 0.295511V1.79551V3.29551L50.9973 3.29551V1.79551Z" fill="#D3AF37"/>
<path d="M27.418 20.6484V22.1484H30.418V20.6484H28.918H27.418ZM28.918 20.6484H30.418V2.69327H28.918H27.418V20.6484H28.918Z" fill="#D3AF37"/>
<path d="M70.0117 91.2C65.9583 91.2 62.2517 90.5067 58.8917 89.12C55.5317 87.68 52.625 85.68 50.1717 83.12C47.7183 80.5067 45.7983 77.44 44.4117 73.92C43.0783 70.3467 42.4117 66.4533 42.4117 62.24C42.4117 57.9733 43.0783 54.0533 44.4117 50.48C45.7983 46.9067 47.7183 43.8133 50.1717 41.2C52.625 38.5333 55.5317 36.48 58.8917 35.04C62.2517 33.6 65.9583 32.8533 70.0117 32.8C71.825 32.8 73.825 33.04 76.0117 33.52C78.1983 33.9467 80.4117 34.56 82.6517 35.36C84.945 36.16 87.0517 37.0933 88.9717 38.16V50H85.9317C85.9317 48.3467 85.425 46.6933 84.4117 45.04C83.4517 43.3867 82.1183 41.8667 80.4117 40.48C78.7583 39.0933 76.8917 38 74.8117 37.2C72.7317 36.3467 70.5983 35.92 68.4117 35.92C65.0517 35.92 62.065 36.8267 59.4517 38.64C56.8383 40.4 54.785 42.8533 53.2917 46C51.8517 49.0933 51.1317 52.6933 51.1317 56.8C51.1317 62.88 52.0117 68.2933 53.7717 73.04C55.5317 77.7333 57.9317 81.4133 60.9717 84.08C64.065 86.7467 67.6117 88.08 71.6117 88.08C74.4383 88.08 76.9183 87.4933 79.0517 86.32C81.185 85.0933 82.865 83.4133 84.0917 81.28C85.3183 79.1467 85.9317 76.72 85.9317 74H88.9717V85.84C87.0517 86.8533 84.945 87.7867 82.6517 88.64C80.4117 89.44 78.1717 90.0533 75.9317 90.48C73.745 90.96 71.7717 91.2 70.0117 91.2Z" fill="url(#paint2_radial_39_2)"/>
<path d="M27.5563 23.0424V21.5461H30.2928V23.0424C33.083 24.0399 38.9853 28.7282 40.2731 39.5012C32.9328 37.586 21.654 38.404 16.9322 39.0524C18.8638 27.0823 24.8198 23.3915 27.5563 23.0424Z" fill="url(#paint3_linear_39_2)"/>
<path d="M98.9409 96.3628H100.441V93.3628H98.9409V94.8628V96.3628ZM98.9409 94.8628V93.3628H4.31541V94.8628V96.3628H98.9409V94.8628Z" fill="#D3AF37"/>
<path d="M97.4409 93.3666V94.8666H100.441V93.3666H98.9409H97.4409ZM98.9409 93.3666H100.441V0.598511H98.9409H97.4409V93.3666H98.9409Z" fill="#D3AF37"/>
<path d="M28.4449 38.7031C31.796 38.7031 34.8286 38.8375 37.022 39.0537C38.1193 39.1618 39.0037 39.2899 39.6119 39.4316C39.9166 39.5027 40.1466 39.5763 40.2984 39.6494C40.3746 39.6861 40.426 39.7203 40.4566 39.75C40.4868 39.7794 40.4888 39.7964 40.4888 39.8008C40.4887 39.8055 40.4865 39.8225 40.4566 39.8515C40.426 39.8812 40.3746 39.9154 40.2984 39.9521C40.1466 40.0252 39.9164 40.0979 39.6119 40.1689C39.0037 40.3107 38.1193 40.4397 37.022 40.5478C34.8286 40.764 31.796 40.8974 28.4449 40.8974C25.0937 40.8974 22.0611 40.764 19.8677 40.5478C18.7705 40.4397 17.886 40.3106 17.2779 40.1689C16.9733 40.0979 16.7431 40.0252 16.5914 39.9521C16.5155 39.9156 16.4648 39.8811 16.4341 39.8515C16.4042 39.8225 16.401 39.8055 16.4009 39.8008C16.4009 39.7963 16.4036 39.7796 16.4341 39.75C16.4647 39.7203 16.5154 39.686 16.5914 39.6494C16.7431 39.5763 16.9732 39.5026 17.2779 39.4316C17.886 39.2899 18.7705 39.1618 19.8677 39.0537C22.0611 38.8375 25.0937 38.7031 28.4449 38.7031Z" fill="url(#paint4_radial_39_2)" stroke="#482700" stroke-width="0.2"/>
<defs>
<clipPath id="paint0_diamond_39_2_clip_path"><path d="M17.1725 107.328L16.9805 109.84C16.7032 110.299 16.3512 110.709 15.9245 111.072C15.5085 111.424 15.0125 111.707 14.4365 111.92C13.8712 112.123 13.2205 112.224 12.4845 112.224C11.3752 112.213 10.3885 111.968 9.5245 111.488C8.6605 111.008 7.98317 110.336 7.4925 109.472C7.0125 108.597 6.7725 107.568 6.7725 106.384C6.7725 105.221 7.0125 104.208 7.4925 103.344C7.9725 102.469 8.6445 101.792 9.5085 101.312C10.3832 100.821 11.4072 100.576 12.5805 100.576C13.3698 100.576 14.0792 100.683 14.7085 100.896C15.3485 101.099 15.9032 101.355 16.3725 101.664L16.6925 103.92H16.5485C16.3138 102.981 15.8338 102.272 15.1085 101.792C14.3832 101.301 13.5405 101.056 12.5805 101.056C11.6418 101.056 10.8258 101.28 10.1325 101.728C9.44983 102.165 8.9165 102.784 8.5325 103.584C8.15917 104.373 7.9725 105.301 7.9725 106.368C7.9725 107.435 8.15917 108.368 8.5325 109.168C8.9165 109.968 9.4445 110.592 10.1165 111.04C10.7992 111.488 11.5885 111.723 12.4845 111.744C13.2418 111.744 13.9405 111.605 14.5805 111.328C15.2312 111.04 15.7752 110.576 16.2125 109.936C16.6498 109.285 16.9272 108.416 17.0445 107.328H17.1725ZM23.7128 100.576L28.4488 111.904H27.0888L23.3928 102.096L23.7128 100.576ZM20.2728 110.832C20.1981 111.045 20.1874 111.227 20.2408 111.376C20.2941 111.525 20.3794 111.643 20.4968 111.728C20.6248 111.803 20.7528 111.84 20.8808 111.84H21.0248V112H17.8087V111.84C17.8087 111.84 17.8354 111.84 17.8887 111.84C17.9314 111.84 17.9527 111.84 17.9527 111.84C18.1981 111.84 18.4488 111.765 18.7048 111.616C18.9714 111.456 19.1901 111.195 19.3608 110.832H20.2728ZM23.7128 100.576L23.8568 101.696L19.8408 111.952H18.8808L22.9768 102.224C22.9768 102.224 23.0034 102.16 23.0568 102.032C23.1208 101.893 23.1901 101.728 23.2648 101.536C23.3501 101.344 23.4194 101.157 23.4728 100.976C23.5368 100.795 23.5688 100.661 23.5688 100.576H23.7128ZM25.9688 107.632V108.112H20.9608V107.632H25.9688ZM26.6888 110.832H28.0008C28.1608 111.195 28.3741 111.456 28.6408 111.616C28.9074 111.765 29.1634 111.84 29.4088 111.84C29.4088 111.84 29.4301 111.84 29.4728 111.84C29.5154 111.84 29.5368 111.84 29.5368 111.84V112H25.9368V111.84H26.0808C26.2834 111.84 26.4648 111.755 26.6248 111.584C26.7848 111.403 26.8061 111.152 26.6888 110.832ZM32.3834 100.8H34.6394C35.1194 100.8 35.5514 100.869 35.9354 101.008C36.33 101.147 36.6607 101.349 36.9274 101.616C37.194 101.872 37.3967 102.187 37.5354 102.56C37.6847 102.923 37.7594 103.339 37.7594 103.808C37.7594 104.32 37.6367 104.811 37.3914 105.28C37.1567 105.749 36.8314 106.133 36.4154 106.432C36.01 106.72 35.5514 106.864 35.0394 106.864C35.2207 106.939 35.418 107.093 35.6314 107.328C35.8447 107.552 36.0314 107.771 36.1914 107.984C36.1914 107.984 36.2607 108.091 36.3994 108.304C36.5487 108.507 36.73 108.757 36.9434 109.056C37.1674 109.355 37.3914 109.648 37.6154 109.936C37.8394 110.224 38.0314 110.453 38.1914 110.624C38.4047 110.859 38.618 111.067 38.8314 111.248C39.0447 111.429 39.274 111.573 39.5194 111.68C39.7754 111.787 40.058 111.84 40.3674 111.84V112H39.4874C38.9967 112 38.57 111.925 38.2074 111.776C37.8554 111.627 37.5567 111.445 37.3114 111.232C37.066 111.008 36.858 110.795 36.6874 110.592C36.6554 110.549 36.5647 110.427 36.4154 110.224C36.2767 110.021 36.106 109.781 35.9034 109.504C35.7114 109.216 35.5194 108.933 35.3274 108.656C35.1354 108.379 34.97 108.144 34.8314 107.952C34.6927 107.749 34.6127 107.632 34.5914 107.6C34.3887 107.333 34.1647 107.088 33.9194 106.864C33.674 106.64 33.4074 106.528 33.1194 106.528V106.368C33.1194 106.368 33.1994 106.373 33.3594 106.384C33.53 106.384 33.7327 106.379 33.9674 106.368C34.2447 106.357 34.5487 106.315 34.8794 106.24C35.21 106.165 35.5194 106.011 35.8074 105.776C36.0954 105.541 36.314 105.184 36.4634 104.704C36.4954 104.587 36.522 104.443 36.5434 104.272C36.5647 104.091 36.57 103.915 36.5594 103.744C36.5487 103.019 36.362 102.443 35.9994 102.016C35.6474 101.579 35.1727 101.344 34.5754 101.312C34.2767 101.291 33.9674 101.285 33.6474 101.296C33.338 101.296 33.0767 101.296 32.8634 101.296C32.65 101.296 32.5434 101.296 32.5434 101.296C32.5434 101.285 32.5274 101.243 32.4954 101.168C32.474 101.083 32.4474 101.003 32.4154 100.928C32.394 100.843 32.3834 100.8 32.3834 100.8ZM32.5914 100.8V112H31.5514V100.8H32.5914ZM31.5994 110.832V112H30.3194V111.84C30.3194 111.84 30.3514 111.84 30.4154 111.84C30.49 111.84 30.5274 111.84 30.5274 111.84C30.8047 111.84 31.0394 111.744 31.2314 111.552C31.434 111.349 31.5407 111.109 31.5514 110.832H31.5994ZM31.5994 101.968H31.5514C31.5407 101.691 31.434 101.456 31.2314 101.264C31.0394 101.061 30.8047 100.96 30.5274 100.96C30.5274 100.96 30.49 100.96 30.4154 100.96C30.3514 100.96 30.3194 100.96 30.3194 100.96V100.8H31.5994V101.968ZM32.5434 110.832H32.5914C32.5914 111.109 32.6927 111.349 32.8954 111.552C33.098 111.744 33.338 111.84 33.6154 111.84C33.6154 111.84 33.6474 111.84 33.7114 111.84C33.7754 111.84 33.8074 111.84 33.8074 111.84V112H32.5434V110.832ZM42.7271 100.8H44.8391C45.5218 100.8 46.1085 100.923 46.5991 101.168C47.0898 101.413 47.4685 101.771 47.7351 102.24C48.0018 102.699 48.1351 103.248 48.1351 103.888C48.1351 104.379 48.0391 104.821 47.8471 105.216C47.6551 105.6 47.3991 105.925 47.0791 106.192C46.7591 106.459 46.3965 106.661 45.9911 106.8C45.5858 106.928 45.1645 106.976 44.7271 106.944C44.3005 106.912 43.8845 106.789 43.4791 106.576V106.416C43.4791 106.416 43.5698 106.432 43.7511 106.464C43.9325 106.485 44.1618 106.491 44.4391 106.48C44.7271 106.459 45.0258 106.4 45.3351 106.304C45.6551 106.197 45.9485 106.016 46.2151 105.76C46.4925 105.504 46.7005 105.147 46.8391 104.688C46.8711 104.571 46.8978 104.427 46.9191 104.256C46.9405 104.075 46.9458 103.899 46.9351 103.728C46.9245 102.992 46.7325 102.4 46.3591 101.952C45.9858 101.504 45.4578 101.28 44.7751 101.28H42.8871C42.8871 101.28 42.8711 101.243 42.8391 101.168C42.8178 101.083 42.7911 101.003 42.7591 100.928C42.7378 100.843 42.7271 100.8 42.7271 100.8ZM42.9351 100.8V112H41.8951V100.8H42.9351ZM41.9431 110.832V112H40.6631V111.84C40.6631 111.84 40.6951 111.84 40.7591 111.84C40.8338 111.84 40.8711 111.84 40.8711 111.84C41.1485 111.84 41.3831 111.744 41.5751 111.552C41.7778 111.349 41.8845 111.109 41.8951 110.832H41.9431ZM41.9431 101.968H41.8951C41.8951 101.691 41.7938 101.456 41.5911 101.264C41.3885 101.061 41.1485 100.96 40.8711 100.96C40.8711 100.96 40.8391 100.96 40.7751 100.96C40.7111 100.96 40.6791 100.96 40.6791 100.96L40.6631 100.8H41.9431V101.968ZM42.8871 110.832H42.9351C42.9458 111.109 43.0471 111.349 43.2391 111.552C43.4418 111.744 43.6818 111.84 43.9591 111.84C43.9591 111.84 43.9911 111.84 44.0551 111.84C44.1298 111.84 44.1671 111.84 44.1671 111.84V112H42.8871V110.832ZM52.0914 100.8V112H51.0514V100.8H52.0914ZM56.4114 111.504V112H52.0434V111.504H56.4114ZM55.7234 106.24V106.72H52.0434V106.24H55.7234ZM56.4114 100.8V101.296H52.0434V100.8H56.4114ZM57.3874 109.408L56.4594 112H53.8034L54.3794 111.504C54.9447 111.504 55.4034 111.419 55.7554 111.248C56.118 111.067 56.4114 110.816 56.6354 110.496C56.8594 110.176 57.0567 109.813 57.2274 109.408H57.3874ZM55.7234 106.688V107.744H55.5634V107.504C55.5634 107.291 55.4887 107.109 55.3394 106.96C55.19 106.8 55.0087 106.72 54.7954 106.72V106.688H55.7234ZM55.7234 105.216V106.272H54.7954V106.24C55.0087 106.229 55.19 106.149 55.3394 106C55.4887 105.84 55.5634 105.653 55.5634 105.44V105.216H55.7234ZM56.4114 101.248V102.528H56.2514V102.24C56.2514 101.984 56.1607 101.765 55.9794 101.584C55.798 101.392 55.574 101.291 55.3074 101.28V101.248H56.4114ZM56.4114 100.512V100.976L54.4594 100.8C54.694 100.8 54.9394 100.784 55.1954 100.752C55.462 100.72 55.7074 100.683 55.9314 100.64C56.1554 100.597 56.3154 100.555 56.4114 100.512ZM51.0994 110.832V112H49.8194V111.84C49.8194 111.84 49.8514 111.84 49.9154 111.84C49.99 111.84 50.0274 111.84 50.0274 111.84C50.3047 111.84 50.5394 111.744 50.7314 111.552C50.934 111.349 51.0407 111.109 51.0514 110.832H51.0994ZM51.0994 101.968H51.0514C51.0514 101.691 50.95 101.456 50.7474 101.264C50.5447 101.061 50.3047 100.96 50.0274 100.96C50.0274 100.96 49.9954 100.96 49.9314 100.96C49.8674 100.96 49.8354 100.96 49.8354 100.96L49.8194 100.8H51.0994V101.968ZM59.9535 100.56L69.2495 110.48L69.3935 112.224L60.0975 102.32L59.9535 100.56ZM59.9855 110.864V112H58.6575V111.84C58.6575 111.84 58.7055 111.84 58.8015 111.84C58.8975 111.84 58.9508 111.84 58.9615 111.84C59.2282 111.84 59.4575 111.744 59.6495 111.552C59.8415 111.36 59.9375 111.131 59.9375 110.864H59.9855ZM60.6735 110.864C60.6735 111.131 60.7695 111.36 60.9615 111.552C61.1535 111.744 61.3828 111.84 61.6495 111.84C61.6602 111.84 61.7135 111.84 61.8095 111.84C61.9055 111.84 61.9535 111.84 61.9535 111.84V112H60.6255V110.864H60.6735ZM59.9535 100.56L60.6575 101.456L60.6735 112H59.9375V102.56C59.9375 102.016 59.9108 101.547 59.8575 101.152C59.8148 100.757 59.7935 100.56 59.7935 100.56H59.9535ZM69.3935 100.8V110.176C69.3935 110.517 69.4042 110.848 69.4255 111.168C69.4468 111.477 69.4682 111.733 69.4895 111.936C69.5215 112.128 69.5375 112.224 69.5375 112.224H69.3935L68.6735 111.376V100.8H69.3935ZM70.6735 100.8V100.96C70.6735 100.96 70.6255 100.96 70.5295 100.96C70.4335 100.96 70.3855 100.96 70.3855 100.96C70.1188 100.96 69.8895 101.056 69.6975 101.248C69.5055 101.429 69.4042 101.659 69.3935 101.936H69.3455V100.8H70.6735ZM67.3775 100.8H68.7055V101.936H68.6735C68.6628 101.659 68.5615 101.429 68.3695 101.248C68.1882 101.056 67.9588 100.96 67.6815 100.96C67.6815 100.96 67.6335 100.96 67.5375 100.96C67.4415 100.96 67.3882 100.96 67.3775 100.96V100.8ZM76.8626 100.848V112H75.8226V100.848H76.8626ZM80.9746 100.784V101.264H71.7106V100.784H80.9746ZM80.9746 101.216V102.512L80.8146 102.496V102.224C80.8146 101.957 80.7186 101.733 80.5266 101.552C80.3453 101.371 80.1266 101.275 79.8706 101.264V101.216H80.9746ZM80.9746 100.496V100.96L79.0226 100.784C79.2573 100.784 79.5026 100.768 79.7586 100.736C80.0253 100.704 80.2706 100.667 80.4946 100.624C80.7186 100.581 80.8786 100.539 80.9746 100.496ZM75.8706 110.832V112H74.5906V111.84C74.5906 111.84 74.6226 111.84 74.6866 111.84C74.7613 111.84 74.7986 111.84 74.7986 111.84C75.076 111.84 75.3106 111.744 75.5026 111.552C75.7053 111.349 75.812 111.109 75.8226 110.832H75.8706ZM76.8146 110.832H76.8626C76.8733 111.109 76.9746 111.349 77.1666 111.552C77.3693 111.744 77.6093 111.84 77.8866 111.84C77.8866 111.84 77.9186 111.84 77.9826 111.84C78.0573 111.84 78.0946 111.84 78.0946 111.84V112H76.8146V110.832ZM72.8146 101.216V101.264C72.548 101.275 72.324 101.371 72.1426 101.552C71.9613 101.733 71.8706 101.957 71.8706 102.224V102.496L71.7106 102.512V101.216H72.8146ZM71.7106 100.496C71.8173 100.539 71.9773 100.581 72.1906 100.624C72.4146 100.667 72.66 100.704 72.9266 100.736C73.1933 100.768 73.4386 100.784 73.6626 100.784L71.7106 100.96V100.496ZM84.5133 100.8V112H83.4733V100.8H84.5133ZM88.8333 111.504V112H84.4653V111.504H88.8333ZM88.1453 106.24V106.72H84.4653V106.24H88.1453ZM88.8333 100.8V101.296H84.4653V100.8H88.8333ZM89.8093 109.408L88.8813 112H86.2253L86.8013 111.504C87.3666 111.504 87.8253 111.419 88.1773 111.248C88.5399 111.067 88.8333 110.816 89.0573 110.496C89.2813 110.176 89.4786 109.813 89.6493 109.408H89.8093ZM88.1453 106.688V107.744H87.9853V107.504C87.9853 107.291 87.9106 107.109 87.7613 106.96C87.6119 106.8 87.4306 106.72 87.2173 106.72V106.688H88.1453ZM88.1453 105.216V106.272H87.2173V106.24C87.4306 106.229 87.6119 106.149 87.7613 106C87.9106 105.84 87.9853 105.653 87.9853 105.44V105.216H88.1453ZM88.8333 101.248V102.528H88.6733V102.24C88.6733 101.984 88.5826 101.765 88.4013 101.584C88.2199 101.392 87.9959 101.291 87.7293 101.28V101.248H88.8333ZM88.8333 100.512V100.976L86.8813 100.8C87.1159 100.8 87.3613 100.784 87.6173 100.752C87.8839 100.72 88.1293 100.683 88.3533 100.64C88.5773 100.597 88.7373 100.555 88.8333 100.512ZM83.5213 110.832V112H82.2413V111.84C82.2413 111.84 82.2733 111.84 82.3372 111.84C82.4119 111.84 82.4493 111.84 82.4493 111.84C82.7266 111.84 82.9613 111.744 83.1533 111.552C83.3559 111.349 83.4626 111.109 83.4733 110.832H83.5213ZM83.5213 101.968H83.4733C83.4733 101.691 83.3719 101.456 83.1693 101.264C82.9666 101.061 82.7266 100.96 82.4493 100.96C82.4493 100.96 82.4173 100.96 82.3533 100.96C82.2893 100.96 82.2573 100.96 82.2573 100.96L82.2413 100.8H83.5213V101.968ZM93.3834 100.8H95.6394C96.1194 100.8 96.5514 100.869 96.9354 101.008C97.33 101.147 97.6607 101.349 97.9274 101.616C98.194 101.872 98.3967 102.187 98.5354 102.56C98.6847 102.923 98.7594 103.339 98.7594 103.808C98.7594 104.32 98.6367 104.811 98.3914 105.28C98.1567 105.749 97.8314 106.133 97.4154 106.432C97.01 106.72 96.5514 106.864 96.0394 106.864C96.2207 106.939 96.418 107.093 96.6314 107.328C96.8447 107.552 97.0314 107.771 97.1914 107.984C97.1914 107.984 97.2607 108.091 97.3994 108.304C97.5487 108.507 97.73 108.757 97.9434 109.056C98.1674 109.355 98.3914 109.648 98.6154 109.936C98.8394 110.224 99.0314 110.453 99.1914 110.624C99.4047 110.859 99.618 111.067 99.8314 111.248C100.045 111.429 100.274 111.573 100.519 111.68C100.775 111.787 101.058 111.84 101.367 111.84V112H100.487C99.9967 112 99.57 111.925 99.2074 111.776C98.8554 111.627 98.5567 111.445 98.3114 111.232C98.066 111.008 97.858 110.795 97.6874 110.592C97.6554 110.549 97.5647 110.427 97.4154 110.224C97.2767 110.021 97.106 109.781 96.9034 109.504C96.7114 109.216 96.5194 108.933 96.3274 108.656C96.1354 108.379 95.97 108.144 95.8314 107.952C95.6927 107.749 95.6127 107.632 95.5914 107.6C95.3887 107.333 95.1647 107.088 94.9194 106.864C94.674 106.64 94.4074 106.528 94.1194 106.528V106.368C94.1194 106.368 94.1994 106.373 94.3594 106.384C94.53 106.384 94.7327 106.379 94.9674 106.368C95.2447 106.357 95.5487 106.315 95.8794 106.24C96.21 106.165 96.5194 106.011 96.8074 105.776C97.0954 105.541 97.314 105.184 97.4634 104.704C97.4954 104.587 97.522 104.443 97.5434 104.272C97.5647 104.091 97.57 103.915 97.5594 103.744C97.5487 103.019 97.362 102.443 96.9994 102.016C96.6474 101.579 96.1727 101.344 95.5754 101.312C95.2767 101.291 94.9674 101.285 94.6474 101.296C94.338 101.296 94.0767 101.296 93.8634 101.296C93.65 101.296 93.5434 101.296 93.5434 101.296C93.5434 101.285 93.5274 101.243 93.4954 101.168C93.474 101.083 93.4474 101.003 93.4154 100.928C93.394 100.843 93.3834 100.8 93.3834 100.8ZM93.5914 100.8V112H92.5514V100.8H93.5914ZM92.5994 110.832V112H91.3194V111.84C91.3194 111.84 91.3514 111.84 91.4154 111.84C91.49 111.84 91.5274 111.84 91.5274 111.84C91.8047 111.84 92.0394 111.744 92.2314 111.552C92.434 111.349 92.5407 111.109 92.5514 110.832H92.5994ZM92.5994 101.968H92.5514C92.5407 101.691 92.434 101.456 92.2314 101.264C92.0394 101.061 91.8047 100.96 91.5274 100.96C91.5274 100.96 91.49 100.96 91.4154 100.96C91.3514 100.96 91.3194 100.96 91.3194 100.96V100.8H92.5994V101.968ZM93.5434 110.832H93.5914C93.5914 111.109 93.6927 111.349 93.8954 111.552C94.098 111.744 94.338 111.84 94.6154 111.84C94.6154 111.84 94.6474 111.84 94.7114 111.84C94.7754 111.84 94.8074 111.84 94.8074 111.84V112H93.5434V110.832Z"/></clipPath><clipPath id="paint1_diamond_39_2_clip_path"><path d="M17.9759 120V119.86L18.7319 119.608L18.6129 119.776V115.324L18.7319 115.492L17.9759 115.24V115.1H20.4959C20.9159 115.1 21.2869 115.196 21.6089 115.387C21.9356 115.574 22.1899 115.833 22.3719 116.164C22.5586 116.495 22.6519 116.876 22.6519 117.305C22.6519 117.697 22.5936 118.059 22.4769 118.39C22.3603 118.717 22.1969 119.001 21.9869 119.244C21.7769 119.482 21.5273 119.669 21.2379 119.804C20.9486 119.935 20.6313 120 20.2859 120H17.9759ZM19.2779 119.776L19.1519 119.65H20.4959C20.7666 119.65 21.0046 119.564 21.2099 119.391C21.4199 119.214 21.5833 118.971 21.6999 118.663C21.8213 118.35 21.8819 117.993 21.8819 117.592C21.8819 117.172 21.8143 116.801 21.6789 116.479C21.5436 116.157 21.3546 115.905 21.1119 115.723C20.8739 115.541 20.5986 115.45 20.2859 115.45H19.1519L19.2779 115.324V119.776ZM23.0208 120V119.86L23.7768 119.608L23.6578 119.776V115.324L23.7768 115.492L23.0208 115.24V115.1H26.7588V116.36H26.6118L26.3248 115.331L26.4858 115.45H24.1968L24.3228 115.324V117.459L24.1968 117.333H25.6808L25.5198 117.452L25.7648 116.675H25.9048V118.285H25.7718L25.5128 117.494L25.6808 117.613H24.1968L24.3228 117.487V119.776L24.1968 119.65H26.4508L26.2688 119.762L26.8918 118.572L27.0248 118.621L26.7798 120H23.0208ZM28.9351 120.112C28.7717 120.112 28.5967 120.093 28.4101 120.056C28.2281 120.023 28.0507 119.974 27.8781 119.909C27.7101 119.844 27.5607 119.771 27.4301 119.692L27.5211 118.621H27.7241C27.7801 118.864 27.8687 119.081 27.9901 119.272C28.1114 119.459 28.2537 119.606 28.4171 119.713C28.5804 119.82 28.7531 119.874 28.9351 119.874C29.2384 119.874 29.4834 119.795 29.6701 119.636C29.8614 119.477 29.9571 119.277 29.9571 119.034C29.9571 118.913 29.9034 118.791 29.7961 118.67C29.6887 118.544 29.5487 118.418 29.3761 118.292C29.2034 118.161 29.0191 118.028 28.8231 117.893C28.5944 117.73 28.3704 117.564 28.1511 117.396C27.9317 117.228 27.7497 117.053 27.6051 116.871C27.4651 116.689 27.3951 116.498 27.3951 116.297C27.3951 116.04 27.4604 115.814 27.5911 115.618C27.7217 115.422 27.9037 115.268 28.1371 115.156C28.3704 115.044 28.6364 114.988 28.9351 114.988C29.1171 114.988 29.2921 115.004 29.4601 115.037C29.6327 115.07 29.7867 115.114 29.9221 115.17C30.0621 115.226 30.1694 115.291 30.2441 115.366V116.374H30.0481C29.9921 116.15 29.9057 115.952 29.7891 115.779C29.6724 115.606 29.5394 115.471 29.3901 115.373C29.2454 115.275 29.0937 115.226 28.9351 115.226C28.6737 115.226 28.4591 115.298 28.2911 115.443C28.1231 115.583 28.0391 115.763 28.0391 115.982C28.0391 116.127 28.0927 116.267 28.2001 116.402C28.3121 116.537 28.4544 116.67 28.6271 116.801C28.8044 116.927 28.9887 117.058 29.1801 117.193C29.3947 117.338 29.6024 117.489 29.8031 117.648C30.0084 117.802 30.1764 117.968 30.3071 118.145C30.4377 118.318 30.5031 118.509 30.5031 118.719C30.5031 118.99 30.4354 119.23 30.3001 119.44C30.1694 119.65 29.9851 119.816 29.7471 119.937C29.5137 120.054 29.2431 120.112 28.9351 120.112ZM30.8753 120V119.86L31.5263 119.65V115.45L30.8753 115.24V115.1H32.8353V115.24L32.1843 115.45V119.65L32.8353 119.86V120H30.8753ZM35.7606 120.105C35.3873 120.105 35.0443 120.044 34.7316 119.923C34.419 119.797 34.1483 119.622 33.9196 119.398C33.691 119.169 33.5136 118.901 33.3876 118.593C33.2663 118.28 33.2056 117.94 33.2056 117.571C33.2056 117.198 33.2663 116.855 33.3876 116.542C33.5136 116.229 33.691 115.959 33.9196 115.73C34.1483 115.497 34.419 115.317 34.7316 115.191C35.0443 115.065 35.3873 115 35.7606 114.995C35.924 114.995 36.1013 115.016 36.2926 115.058C36.4886 115.095 36.6846 115.149 36.8806 115.219C37.0766 115.289 37.2563 115.371 37.4196 115.464V116.5H37.1536C37.1536 116.257 37.0883 116.045 36.9576 115.863C36.827 115.676 36.645 115.532 36.4116 115.429C36.183 115.322 35.9193 115.268 35.6206 115.268C35.2986 115.268 35.0116 115.347 34.7596 115.506C34.5123 115.66 34.3186 115.875 34.1786 116.15C34.0386 116.421 33.9686 116.736 33.9686 117.095C33.9686 117.627 34.0503 118.101 34.2136 118.516C34.377 118.927 34.6033 119.249 34.8926 119.482C35.1866 119.715 35.5226 119.832 35.9006 119.832C36.1106 119.832 36.3136 119.785 36.5096 119.692C36.7056 119.599 36.876 119.473 37.0206 119.314L36.9646 119.503V118.124L37.0906 118.278L36.0476 118.04V117.9H38.0776V118.033L37.5176 118.306L37.6296 118.124V119.622C37.4663 119.715 37.2773 119.799 37.0626 119.874C36.848 119.944 36.6263 120 36.3976 120.042C36.1736 120.084 35.9613 120.105 35.7606 120.105ZM43.1466 120.175L39.3176 115.653L39.4016 115.625V119.776L39.2826 119.608L40.0596 119.867V120H38.4496V119.86L39.2056 119.608L39.0866 119.776V115.324L39.2056 115.492L38.4496 115.24V115.1H39.7656L42.9016 118.831L42.8316 118.859V115.324L42.9506 115.492L42.1946 115.24V115.1H43.8046V115.233L43.0276 115.492L43.1466 115.324V119.993V120.175ZM50.2448 121.512V115.331L50.7348 114.981V121.162L50.2448 121.512ZM57.1732 120V119.86L57.8242 119.65V115.45L57.1732 115.24V115.1H59.1332V115.24L58.4822 115.45V119.65L59.1332 119.86V120H57.1732ZM64.0782 120.175L60.2492 115.653L60.3332 115.625V119.776L60.2142 119.608L60.9912 119.867V120H59.3812V119.86L60.1372 119.608L60.0182 119.776V115.324L60.1372 115.492L59.3812 115.24V115.1H60.6972L63.8332 118.831L63.7632 118.859V115.324L63.8822 115.492L63.1262 115.24V115.1H64.7362V115.233L63.9592 115.492L64.0782 115.324V119.993V120.175ZM66.0609 120V119.86L66.8169 119.608L66.6979 119.776V115.324L66.8239 115.45H65.4239L65.6059 115.338L64.9969 116.5H64.8499L65.0879 115.1H68.9589L69.1969 116.5H69.0499L68.4409 115.338L68.6229 115.45H67.2369L67.3629 115.268V119.776L67.2439 119.608L67.9509 119.867V120H66.0609ZM69.307 120V119.86L70.063 119.608L69.944 119.776V115.324L70.063 115.492L69.307 115.24V115.1H73.045V116.36H72.898L72.611 115.331L72.772 115.45H70.483L70.609 115.324V117.459L70.483 117.333H71.967L71.806 117.452L72.051 116.675H72.191V118.285H72.058L71.799 117.494L71.967 117.613H70.483L70.609 117.487V119.776L70.483 119.65H72.737L72.555 119.762L73.178 118.572L73.311 118.621L73.066 120H69.307ZM73.4222 120V119.86L74.1782 119.608L74.0592 119.776V115.324L74.1782 115.492L73.4222 115.24V115.1H75.5222C75.8349 115.1 76.1102 115.151 76.3482 115.254C76.5909 115.357 76.7799 115.499 76.9152 115.681C77.0505 115.863 77.1182 116.073 77.1182 116.311C77.1182 116.544 77.0715 116.761 76.9782 116.962C76.8895 117.158 76.7635 117.326 76.6002 117.466C76.4369 117.606 76.2432 117.713 76.0192 117.788L76.0332 117.655L77.2092 119.363C77.2745 119.461 77.3422 119.54 77.4122 119.601C77.4822 119.662 77.5732 119.713 77.6852 119.755L77.9932 119.867V120H76.7892L75.3822 117.788L75.5712 117.9H74.5982L74.7242 117.774V119.776L74.6052 119.615L75.4522 119.86V120H73.4222ZM74.7242 117.746L74.5982 117.62H75.5222C75.7649 117.62 75.9632 117.52 76.1172 117.319C76.2712 117.114 76.3482 116.852 76.3482 116.535C76.3482 116.218 76.2502 115.959 76.0542 115.758C75.8629 115.553 75.6155 115.45 75.3122 115.45H74.5982L74.7242 115.324V117.746ZM78.0501 120V119.86L78.7011 119.65V115.45L78.0501 115.24V115.1H80.0101V115.24L79.3591 115.45V119.65L80.0101 119.86V120H78.0501ZM82.7534 120.112C82.2914 120.112 81.8808 120.005 81.5214 119.79C81.1668 119.571 80.8868 119.27 80.6814 118.887C80.4808 118.504 80.3804 118.066 80.3804 117.571C80.3804 117.193 80.4388 116.848 80.5554 116.535C80.6721 116.218 80.8354 115.945 81.0454 115.716C81.2554 115.483 81.5051 115.303 81.7944 115.177C82.0838 115.051 82.4034 114.988 82.7534 114.988C83.1034 114.988 83.4231 115.051 83.7124 115.177C84.0064 115.298 84.2584 115.471 84.4684 115.695C84.6831 115.919 84.8488 116.185 84.9654 116.493C85.0821 116.796 85.1404 117.132 85.1404 117.501C85.1404 117.884 85.0821 118.234 84.9654 118.551C84.8488 118.868 84.6831 119.144 84.4684 119.377C84.2584 119.61 84.0064 119.792 83.7124 119.923C83.4231 120.049 83.1034 120.112 82.7534 120.112ZM82.9144 119.825C83.3858 119.825 83.7474 119.669 83.9994 119.356C84.2514 119.039 84.3774 118.586 84.3774 117.998C84.3774 117.121 84.2234 116.449 83.9154 115.982C83.6074 115.511 83.1664 115.275 82.5924 115.275C82.1258 115.275 81.7664 115.434 81.5144 115.751C81.2671 116.064 81.1434 116.512 81.1434 117.095C81.1434 117.972 81.2951 118.647 81.5984 119.118C81.9064 119.589 82.3451 119.825 82.9144 119.825ZM85.5081 120V119.86L86.2641 119.608L86.1451 119.776V115.324L86.2641 115.492L85.5081 115.24V115.1H87.6081C87.9208 115.1 88.1961 115.151 88.4341 115.254C88.6768 115.357 88.8658 115.499 89.0011 115.681C89.1365 115.863 89.2041 116.073 89.2041 116.311C89.2041 116.544 89.1575 116.761 89.0641 116.962C88.9755 117.158 88.8495 117.326 88.6861 117.466C88.5228 117.606 88.3291 117.713 88.1051 117.788L88.1191 117.655L89.2951 119.363C89.3605 119.461 89.4281 119.54 89.4981 119.601C89.5681 119.662 89.6591 119.713 89.7711 119.755L90.0791 119.867V120H88.8751L87.4681 117.788L87.6571 117.9H86.6841L86.8101 117.774V119.776L86.6911 119.615L87.5381 119.86V120H85.5081ZM86.8101 117.746L86.6841 117.62H87.6081C87.8508 117.62 88.0491 117.52 88.2031 117.319C88.3571 117.114 88.4341 116.852 88.4341 116.535C88.4341 116.218 88.3361 115.959 88.1401 115.758C87.9488 115.553 87.7015 115.45 87.3981 115.45H86.6841L86.8101 115.324V117.746Z"/></clipPath><linearGradient id="paint0_diamond_39_2" x1="0" y1="0" x2="500" y2="500" gradientUnits="userSpaceOnUse">
<stop stop-color="#FABF30"/>
<stop offset="1" stop-color="#DFBC6F"/>
</linearGradient>
<linearGradient id="paint1_diamond_39_2" x1="0" y1="0" x2="500" y2="500" gradientUnits="userSpaceOnUse">
<stop stop-color="#FABF30"/>
<stop offset="1" stop-color="#DFBC6F"/>
</linearGradient>
<radialGradient id="paint2_radial_39_2" cx="0" cy="0" r="1" gradientUnits="userSpaceOnUse" gradientTransform="translate(50.4524 44.1935) rotate(54.0013) scale(86.922 39.0504)">
<stop offset="0.00992307" stop-color="#E9D491"/>
<stop offset="0.540193" stop-color="#D3AF37"/>
</radialGradient>
<linearGradient id="paint3_linear_39_2" x1="25.2907" y1="21.5461" x2="25.3146" y2="36.3596" gradientUnits="userSpaceOnUse">
<stop offset="0.225962" stop-color="#D3AF37"/>
<stop offset="0.793269" stop-color="#FABF30"/>
</linearGradient>
<radialGradient id="paint4_radial_39_2" cx="0" cy="0" r="1" gradientUnits="userSpaceOnUse" gradientTransform="translate(28.4449 33.9651) rotate(90) scale(7.03242 8.15356)">
<stop offset="0.514423" stop-color="white"/>
<stop offset="1" stop-color="#FFBD2B"/>
</radialGradient>
</defs>
</svg>
